<svg width="31" height="31" viewBox="0 0 31 31" fill="none" xmlns="http://www.w3.org/2000/svg">
<path d="M5.02457 20.2443L8.07936 0.59549C8.10147 0.449839 8.16897 0.314875 8.27224 0.209813C8.37551 0.10475 8.5093 0.034943 8.65454 0.0103293C8.79979 -0.0142843 8.94911 0.00754985 9.08123 0.0727235C9.21335 0.137897 9.32154 0.243089 9.3904 0.373323L12.6751 6.53586L5.02457 20.2443ZM26.7181 25.0119L23.8093 6.92982C23.7879 6.80308 23.7321 6.68465 23.648 6.58747C23.5638 6.49029 23.4546 6.4181 23.3323 6.37877C23.2099 6.33945 23.0791 6.33451 22.9541 6.36449C22.8291 6.39447 22.7147 6.45822 22.6235 6.54878L4.28186 25.0119L14.4305 30.7314C14.7435 30.9072 15.0964 30.9996 15.4554 30.9996C15.8144 30.9996 16.1674 30.9072 16.4804 30.7314L26.7181 25.0119ZM18.4708 9.23286L16.12 4.73528C16.0607 4.62218 15.9715 4.52745 15.8623 4.46136C15.753 4.39527 15.6277 4.36034 15.5 4.36034C15.3723 4.36034 15.247 4.39527 15.1377 4.46136C15.0284 4.52745 14.9393 4.62218 14.88 4.73528L4.55957 23.2294L18.4708 9.23286Z" fill="#A7A7A7"/>
</svg>
