<svg width="49" height="50" viewBox="0 0 49 50" fill="none" xmlns="http://www.w3.org/2000/svg">
<g clip-path="url(#clip0)">
<path d="M16.0927 38.8086C16.0927 39.0039 15.8696 39.1602 15.5883 39.1602C15.2682 39.1895 15.0451 39.0332 15.0451 38.8086C15.0451 38.6133 15.2682 38.457 15.5495 38.457C15.8405 38.4277 16.0927 38.584 16.0927 38.8086ZM13.0759 38.3691C13.008 38.5645 13.202 38.7891 13.493 38.8477C13.7452 38.9453 14.0363 38.8477 14.0945 38.6523C14.1527 38.457 13.9684 38.2324 13.6773 38.1445C13.4251 38.0762 13.1438 38.1738 13.0759 38.3691ZM17.3634 38.2031C17.0821 38.2715 16.8881 38.457 16.9172 38.6816C16.9463 38.877 17.1985 39.0039 17.4895 38.9355C17.7708 38.8672 17.9649 38.6816 17.9358 38.4863C17.9066 38.3008 17.6447 38.1738 17.3634 38.2031ZM23.7462 0.78125C10.292 0.78125 0 11.0645 0 24.6094C0 35.4395 6.77077 44.707 16.4419 47.9688C17.6835 48.1934 18.1201 47.4219 18.1201 46.7871C18.1201 46.1816 18.091 42.8418 18.091 40.791C18.091 40.791 11.3008 42.2559 9.87485 37.8809C9.87485 37.8809 8.76902 35.0391 7.17818 34.3066C7.17818 34.3066 4.95682 32.7734 7.33338 32.8027C7.33338 32.8027 9.74874 32.998 11.0777 35.3223C13.202 39.0918 16.762 38.0078 18.1492 37.3633C18.3723 35.8008 19.0028 34.7168 19.7012 34.0723C14.2788 33.4668 8.80782 32.6758 8.80782 23.2812C8.80782 20.5957 9.54504 19.248 11.0971 17.5293C10.8449 16.8945 10.0204 14.2773 11.3493 10.8984C13.3766 10.2637 18.0425 13.5352 18.0425 13.5352C19.9825 12.9883 22.0681 12.7051 24.1342 12.7051C26.2004 12.7051 28.2859 12.9883 30.226 13.5352C30.226 13.5352 34.8918 10.2539 36.9191 10.8984C38.2481 14.2871 37.4235 16.8945 37.1713 17.5293C38.7234 19.2578 39.674 20.6055 39.674 23.2812C39.674 32.7051 33.9606 33.457 28.5381 34.0723C29.4305 34.8437 30.1872 36.3086 30.1872 38.6035C30.1872 41.8945 30.1581 45.9668 30.1581 46.7676C30.1581 47.4023 30.6043 48.1738 31.8362 47.9492C41.5364 44.707 48.1132 35.4395 48.1132 24.6094C48.1132 11.0645 37.2004 0.78125 23.7462 0.78125ZM9.42864 34.4629C9.30253 34.5605 9.33163 34.7852 9.49654 34.9707C9.65174 35.127 9.87485 35.1953 10.001 35.0684C10.1271 34.9707 10.098 34.7461 9.93305 34.5605C9.77785 34.4043 9.55474 34.3359 9.42864 34.4629ZM8.38101 33.6719C8.31311 33.7988 8.41011 33.9551 8.60412 34.0527C8.75932 34.1504 8.95333 34.1211 9.02123 33.9844C9.08913 33.8574 8.99213 33.7012 8.79812 33.6035C8.60412 33.5449 8.44891 33.5742 8.38101 33.6719ZM11.5239 37.1484C11.3687 37.2754 11.4269 37.5684 11.65 37.7539C11.8731 37.9785 12.1544 38.0078 12.2805 37.8516C12.4066 37.7246 12.3484 37.4316 12.1544 37.2461C11.941 37.0215 11.65 36.9922 11.5239 37.1484ZM10.4181 35.7129C10.2629 35.8105 10.2629 36.0645 10.4181 36.2891C10.5733 36.5137 10.8352 36.6113 10.9613 36.5137C11.1165 36.3867 11.1165 36.1328 10.9613 35.9082C10.8255 35.6836 10.5733 35.5859 10.4181 35.7129Z" fill="#1C8AAC"/>
</g>
<defs>
<clipPath id="clip0">
<rect width="48.1132" height="50" fill="white"/>
</clipPath>
</defs>
</svg>
