<svg width="15" height="31" viewBox="0 0 15 31" fill="none" xmlns="http://www.w3.org/2000/svg">
<path d="M14.1908 12.2941C12.5595 5.11242 8.71158 2.75254 8.29824 1.84967C7.84358 1.21288 7.35145 0 7.35145 0L7.34499 0.0632917V0.0800833H7.3437C7.3414 0.0968113 7.33968 0.113613 7.33853 0.130458V0.149833H7.33595L7.33337 0.183417V0.217H7.32949C7.3282 0.227333 7.3282 0.24025 7.32562 0.249292V0.276417H7.32303C7.32303 0.285458 7.32303 0.295792 7.32045 0.303542V0.329375H7.31787L7.31528 0.370708V0.373292L7.30366 0.437875V0.448208H7.30108L7.2972 0.463708V0.485667H7.29333V0.514083H7.28687V0.537333H7.28041V0.564458H7.27524V0.589H7.27007V0.610958H7.26233V0.629042H7.25716V0.652292H7.25199V0.670375H7.24553V0.687167H7.24166V0.706542H7.23649L7.2352 0.711708V0.724625H7.23133L7.23003 0.732375V0.740125H7.22745C7.22609 0.744316 7.22522 0.748651 7.22487 0.753042L7.21195 0.780167V0.78275C7.20938 0.785438 7.2072 0.788483 7.20549 0.791792V0.802125H7.20033V0.812458H7.19387V0.822792H7.18999V0.835708H7.18224V0.853792H7.17708V0.858958H7.17191V0.869292H7.16674V0.8835H7.16158V0.893833H7.15383V0.908042H7.14866V0.918375H7.1422V0.928708H7.13833V0.941625H7.13187V0.951958H7.1267V0.959708H7.12153V0.970042H7.11378V0.981667H7.10862V0.989417H7.10216V0.99975H7.09699V1.01396H7.09053V1.01912H7.08666V1.02946H7.07891V1.03462H7.07374V1.04754H7.06858V1.05271H7.06341V1.06304H7.05695V1.07079H7.05308L7.05049 1.07596V1.08112H7.04791L7.04533 1.08629V1.08758H7.04403C7.04311 1.09099 7.04133 1.0941 7.03887 1.09662V1.1005H7.03758L7.02208 1.12375V1.12504C7.01949 1.12762 7.01303 1.13279 7.01045 1.13796V1.14054H7.00916L7.00528 1.14442V1.14829H7.0027L6.99883 1.15217V1.15346H6.99753L6.99366 1.15862V1.16379H6.98978L6.9872 1.16637V1.16896H6.98462C6.98462 1.17154 6.98203 1.17154 6.98203 1.17283V1.17671H6.97687L6.97428 1.18058V1.18833H6.97041V1.1935H6.96524V1.20125H6.96008V1.21158H6.95362V1.20125H6.94716V1.20642H6.94199V1.21417H6.93553V1.2245H6.92908V1.22967H6.92391V1.23742H6.91874V1.24258H6.91357V1.25292H6.90583V1.25808H6.90066V1.26583H6.8942V1.271H6.88903V1.27746H6.88258V1.29037H6.87999V1.29554H6.87224V1.302H6.86708V1.30458H6.86191V1.30975H6.85545V1.32267H6.85028V1.32783H6.84383V1.333H6.83866V1.34075H6.8322V1.34592H6.82574V1.35108H6.82058V1.35625H6.81541V1.36917H6.81024V1.37563H6.80249V1.38079H6.79733V1.38596H6.79087V1.39371H6.7857V1.39887H6.77924V1.40792H6.77408V1.41308H6.76633V1.42083H6.76374V1.426H6.75858V1.43117H6.75212V1.43633H6.74695V1.44408H6.74049V1.44925H6.73662L6.73533 1.45183V1.45442H6.73274L6.72758 1.45958L6.72241 1.46346V1.47121H6.71724V1.47767H6.71208V1.48283H6.70691V1.488H6.70303L6.69916 1.49187V1.49575H6.69658L6.69399 1.49833V1.50221H6.69141C6.68495 1.50996 6.68237 1.51512 6.67333 1.52287C6.64978 1.53894 6.62773 1.55709 6.60745 1.57712L6.57903 1.59908V1.60037H6.57774C6.55683 1.6174 6.53573 1.63419 6.51445 1.65075V1.65204L6.41887 1.73212V1.73083H6.41628C6.34266 1.79154 6.26516 1.86 6.17603 1.93621V1.9375H6.17474C5.95645 2.12867 5.69683 2.37408 5.4062 2.67117L5.38683 2.69054L5.38166 2.69571C3.62499 4.51308 0.856951 8.30025 0.565034 14.4202C0.539201 14.9265 0.544368 15.4186 0.572784 15.8978V15.9095C0.713576 18.321 1.47049 20.3799 2.41728 22.0526V22.0539C2.79445 22.7204 3.20133 23.3262 3.61337 23.8687V23.87C5.03678 25.7494 6.48991 26.8628 6.86062 27.1327C7.43024 28.4541 7.37728 30.7223 7.37728 30.7223L8.20912 31C8.20912 31 8.03991 28.8029 8.27758 27.7424C8.3512 27.4105 8.52558 27.1276 8.72837 26.8873C9.0882 26.6309 9.432 26.3527 9.75783 26.0542C9.78108 26.0297 9.79399 26.0077 9.81466 25.9845C11.7793 24.1529 15.4489 19.6424 14.1908 12.2941V12.2941Z" fill="#A7A7A7"/>
</svg>
