<svg width="28" height="31" viewBox="0 0 28 31" fill="none" xmlns="http://www.w3.org/2000/svg">
<g clip-path="url(#clip0)">
<path d="M13.5625 30.7578C13.1568 30.7578 12.7451 30.6489 12.3879 30.443L8.65212 28.233C8.09509 27.9182 8.36755 27.8092 8.54919 27.7487C9.29392 27.4883 9.44529 27.4338 10.2385 26.9797C10.3232 26.9313 10.4322 26.9494 10.517 27.0039L13.3869 28.7053C13.4898 28.7659 13.6351 28.7659 13.732 28.7053L24.915 22.251C25.0179 22.1905 25.0845 22.0694 25.0845 21.9483V9.03967C25.0845 8.91253 25.0179 8.79749 24.909 8.73088L13.732 2.28264C13.6291 2.2221 13.4898 2.2221 13.3869 2.28264L2.21599 8.73694C2.10701 8.79749 2.04041 8.91858 2.04041 9.04573V21.9483C2.04041 22.0694 2.10701 22.1905 2.21599 22.245L5.27966 24.0129C6.9447 24.8424 7.96189 23.8676 7.96189 22.8807V10.1416C7.96189 9.95999 8.1072 9.82073 8.28884 9.82073H9.70564C9.88123 9.82073 10.0326 9.95999 10.0326 10.1416V22.8867C10.0326 25.1028 8.82166 26.3742 6.72068 26.3742C6.07283 26.3742 5.56423 26.3742 4.14744 25.6719L1.21697 23.9826C0.490405 23.5649 0.0423584 22.7838 0.0423584 21.9422V9.03967C0.0423584 8.20413 0.490405 7.41702 1.21697 6.99924L12.3879 0.544946C13.0963 0.145337 14.0347 0.145337 14.7371 0.544946L25.9201 7.0053C26.6467 7.42307 27.0947 8.20413 27.0947 9.04573V21.9483C27.0947 22.7838 26.6467 23.5649 25.9201 23.9887L14.7371 30.443C14.3799 30.6489 13.9742 30.7578 13.5625 30.7578ZM22.59 18.0369C22.59 15.6211 20.9552 14.9793 17.5222 14.5252C14.0469 14.0651 13.6957 13.8289 13.6957 13.0176C13.6957 12.3455 13.9924 11.4494 16.5656 11.4494C18.8603 11.4494 19.708 11.9459 20.0592 13.4959C20.0894 13.6412 20.2226 13.7502 20.374 13.7502H21.8271C21.9179 13.7502 22.0027 13.7139 22.0633 13.6473C22.1238 13.5807 22.1541 13.4899 22.148 13.3991C21.924 10.7289 20.15 9.48772 16.5656 9.48772C13.3748 9.48772 11.4736 10.8319 11.4736 13.0903C11.4736 15.5364 13.3687 16.2145 16.4263 16.5172C20.0894 16.8744 20.374 17.4133 20.374 18.1338C20.374 19.3811 19.3689 19.9139 17.0136 19.9139C14.0529 19.9139 13.4051 19.1692 13.1871 17.6979C13.1629 17.5405 13.0297 17.4254 12.8662 17.4254H11.4191C11.2375 17.4254 11.0982 17.5707 11.0982 17.7463C11.0982 19.6293 12.1215 21.8756 17.0197 21.8756C20.5556 21.8696 22.59 20.4709 22.59 18.0369V18.0369Z" fill="#A7A7A7"/>
</g>
<defs>
<clipPath id="clip0">
<rect width="27.125" height="31" fill="white"/>
</clipPath>
</defs>
</svg>
