<svg width="31" height="31" viewBox="0 0 31 31" fill="none" xmlns="http://www.w3.org/2000/svg">
<path d="M25.3207 10.7289C24.9938 10.6199 24.6668 10.517 24.3398 10.4201C24.3943 10.1961 24.4428 9.97205 24.4912 9.74802C25.2359 6.13943 24.7455 3.23923 23.0926 2.28259C21.5002 1.36833 18.9027 2.31892 16.275 4.60759C16.0146 4.83162 15.7604 5.06775 15.5182 5.30388C15.3547 5.14646 15.1852 4.98904 15.0156 4.83767C12.2607 2.39158 9.49981 1.36228 7.84688 2.32498C6.26055 3.24529 5.78828 5.97595 6.4543 9.3908C6.5209 9.72986 6.59355 10.0629 6.67832 10.4019C6.29082 10.5109 5.90937 10.632 5.55215 10.7592C2.31895 11.8793 0 13.6472 0 15.4758C0 17.3648 2.47031 19.2599 5.83066 20.4103C6.10313 20.5011 6.37559 20.592 6.6541 20.6707C6.56328 21.034 6.48457 21.3912 6.41191 21.7605C5.77617 25.1209 6.27266 27.7849 7.85898 28.6992C9.49375 29.6437 12.2426 28.675 14.9187 26.3318C15.1307 26.1441 15.3426 25.9504 15.5545 25.7445C15.8209 26.0049 16.0994 26.2531 16.3779 26.4953C18.9693 28.7234 21.5305 29.6256 23.1107 28.7113C24.7455 27.7668 25.2783 24.9029 24.5881 21.4154C24.5336 21.149 24.473 20.8765 24.4064 20.598C24.6002 20.5435 24.7879 20.483 24.9756 20.4224C28.4691 19.266 31 17.3951 31 15.4758C31 13.6412 28.6145 11.8611 25.3207 10.7289V10.7289ZM17.1287 5.58845C19.3811 3.62673 21.482 2.85779 22.4387 3.40876C23.4619 3.99607 23.8555 6.36951 23.2137 9.48767C23.1713 9.69353 23.1289 9.89333 23.0744 10.0931C21.7303 9.7904 20.368 9.57244 18.9996 9.45134C18.2125 8.32517 17.3527 7.24744 16.4203 6.2363C16.6564 6.01228 16.8865 5.80037 17.1287 5.58845V5.58845ZM10.1234 18.6181C10.4322 19.1449 10.7471 19.6717 11.0801 20.1863C10.1355 20.0834 9.19707 19.932 8.2707 19.7322C8.53711 18.8603 8.87012 17.9582 9.25762 17.0379C9.53613 17.5707 9.8207 18.0974 10.1234 18.6181V18.6181ZM8.28887 11.3344C9.16074 11.1406 10.0871 10.9832 11.0498 10.8621C10.7289 11.3646 10.4141 11.8793 10.1174 12.4C9.8207 12.9146 9.53008 13.4414 9.25762 13.9742C8.87617 13.072 8.55527 12.1881 8.28887 11.3344ZM9.94785 15.506C10.3475 14.6705 10.7834 13.8531 11.2436 13.0478C11.7037 12.2426 12.2002 11.4615 12.7209 10.6926C13.6291 10.626 14.5555 10.5896 15.5 10.5896C16.4445 10.5896 17.377 10.626 18.2791 10.6926C18.7937 11.4554 19.2842 12.2365 19.7504 13.0357C20.2166 13.8349 20.6525 14.6523 21.0643 15.4818C20.6586 16.3174 20.2227 17.1408 19.7564 17.9521C19.2963 18.7574 18.8059 19.5385 18.2912 20.3135C17.3891 20.3801 16.4506 20.4103 15.5 20.4103C14.5494 20.4103 13.6291 20.3801 12.7391 20.3256C12.2123 19.5566 11.7158 18.7695 11.2496 17.9642C10.7834 17.159 10.3535 16.3416 9.94785 15.506ZM20.8826 18.606C21.1914 18.0732 21.482 17.5344 21.7666 16.9894C22.1541 17.8674 22.4932 18.7574 22.7898 19.6717C21.8514 19.8836 20.9008 20.047 19.9441 20.156C20.2711 19.6474 20.5799 19.1267 20.8826 18.606ZM21.7545 13.9742C21.4699 13.4414 21.1793 12.9086 20.8766 12.3879C20.5799 11.8732 20.2711 11.3646 19.9502 10.8621C20.925 10.9832 21.8574 11.1467 22.7293 11.3465C22.4508 12.2426 22.1238 13.1144 21.7545 13.9742V13.9742ZM15.5121 7.16267C16.1479 7.85291 16.7473 8.57947 17.3043 9.33025C16.1055 9.27576 14.9006 9.27576 13.7018 9.33025C14.2951 8.54919 14.9066 7.82263 15.5121 7.16267ZM8.48867 3.45115C9.50586 2.85779 11.7643 3.70544 14.1438 5.81248C14.2951 5.94568 14.4465 6.09099 14.6039 6.2363C13.6654 7.24744 12.7996 8.32517 12.0064 9.45134C10.6381 9.57244 9.28184 9.78435 7.9377 10.081C7.85898 9.77224 7.79238 9.4574 7.72578 9.14255C7.15664 6.21208 7.53203 4.00212 8.48867 3.45115V3.45115ZM7.00527 19.4113C6.75098 19.3386 6.50273 19.2599 6.25449 19.1752C4.96484 18.7695 3.49961 18.1277 2.44004 17.2861C1.82852 16.8623 1.4168 16.2084 1.30176 15.4758C1.30176 14.3677 3.21504 12.951 5.97598 11.9883C6.32109 11.8672 6.67227 11.7582 7.02344 11.6552C7.43516 12.9691 7.93164 14.2588 8.50684 15.506C7.92559 16.7715 7.42305 18.0793 7.00527 19.4113V19.4113ZM14.065 25.3449C13.066 26.2592 11.9096 26.9857 10.6502 27.4822C9.97812 27.8031 9.20313 27.8334 8.51289 27.5609C7.5502 27.0039 7.15059 24.8666 7.69551 21.9906C7.76211 21.6515 7.83477 21.3125 7.91953 20.9795C9.27578 21.2701 10.6441 21.4699 12.0307 21.5728C12.8299 22.7051 13.7078 23.7888 14.6463 24.806C14.4525 24.9937 14.2588 25.1754 14.065 25.3449ZM15.5484 23.8736C14.9309 23.2076 14.3133 22.4689 13.7139 21.6758C14.2951 21.7 14.8945 21.7121 15.5 21.7121C16.1236 21.7121 16.7352 21.7 17.3406 21.6697C16.7836 22.4386 16.1842 23.1713 15.5484 23.8736V23.8736ZM23.4619 25.69C23.4074 26.4287 23.0441 27.1189 22.4629 27.5851C21.5002 28.1422 19.4477 27.4156 17.2316 25.5144C16.9773 25.2965 16.723 25.0603 16.4627 24.8181C17.3891 23.7949 18.2428 22.7111 19.0178 21.5728C20.4043 21.4578 21.7848 21.2459 23.1471 20.9371C23.2076 21.1853 23.2621 21.4336 23.3105 21.6758C23.6072 22.9836 23.6557 24.3459 23.4619 25.69V25.69ZM24.5639 19.1812C24.3943 19.2357 24.2248 19.2902 24.0492 19.3386C23.6254 18.0187 23.1047 16.7291 22.5053 15.4758C23.0865 14.2406 23.577 12.9691 23.9887 11.6674C24.3035 11.7582 24.6063 11.8551 24.8969 11.9519C27.7184 12.9207 29.6982 14.3617 29.6982 15.4636C29.6982 16.6504 27.5852 18.1822 24.5639 19.1812ZM15.5 18.273C17.0318 18.273 18.273 17.0318 18.273 15.5C18.273 13.9681 17.0318 12.7269 15.5 12.7269C13.9682 12.7269 12.727 13.9681 12.727 15.5C12.727 17.0318 13.9682 18.273 15.5 18.273Z" fill="#A7A7A7"/>
</svg>
