<svg width="50" height="50" viewBox="0 0 50 50" fill="none" xmlns="http://www.w3.org/2000/svg">
<path d="M34.6521 34.3833C36.4625 34.227 37.8666 32.6333 37.775 30.7291C37.6791 28.8249 36.1187 27.2958 34.2166 27.2958H34.0896C33.1456 27.3294 32.2537 27.7366 31.6099 28.4277C30.9661 29.1188 30.623 30.0373 30.6562 30.9812C30.7187 31.9791 31.1271 32.7916 31.6854 33.3833C29.5021 37.6291 26.225 40.7499 21.2604 43.3729C17.9208 45.1187 14.3937 45.777 10.9604 45.3083C8.08957 44.9041 5.84373 43.6208 4.46873 41.5625C2.4104 38.4395 2.2229 35.0708 3.93748 31.6999C5.18957 29.2645 7.0604 27.4854 8.3104 26.6104C7.93315 25.5647 7.64054 24.4904 7.4354 23.3979C-1.80627 30.0166 -0.866683 39.0666 1.94165 43.3437C4.03332 46.4645 8.3104 48.4604 12.9916 48.4604C14.2396 48.4604 15.5521 48.3687 16.8312 48.0562C24.9479 46.4958 31.0958 41.627 34.6229 34.4479L34.6521 34.3833ZM45.7937 26.5791C40.9583 20.8979 33.8396 17.777 25.7229 17.777H24.6604C24.1333 16.6229 22.9167 15.9041 21.5417 15.9041H21.4479C19.4833 15.9041 17.9521 17.5916 18.0166 19.5562C18.0791 21.427 19.6708 22.9895 21.575 22.9895H21.7292C22.4042 22.963 23.0573 22.7429 23.6107 22.3554C24.1641 21.9679 24.5943 21.4294 24.85 20.8041H26.0062C30.8166 20.8041 35.3708 22.2083 39.5229 24.9541C42.7041 27.0458 44.9854 29.7916 46.2646 33.0708C47.3854 35.7541 47.325 38.377 46.1708 40.5645C44.3916 43.9958 41.3937 45.8083 37.4312 45.8083C34.9333 45.8083 32.5 45.027 31.25 44.4666C30.5021 45.0874 29.2521 46.1187 28.3458 46.7437C31.0916 47.9895 33.8708 48.7083 36.5541 48.7083C42.6416 48.7083 47.1646 45.277 48.8833 41.9666C50.7541 38.2208 50.6 31.9166 45.8229 26.5166L45.7937 26.5791V26.5791ZM13.5208 35.5041C13.5613 36.4232 13.953 37.2918 14.6151 37.9306C15.2772 38.5694 16.1592 38.9298 17.0792 38.9375H17.2042C17.6733 38.9269 18.1355 38.8225 18.5637 38.6305C18.9919 38.4385 19.3773 38.1628 19.6972 37.8195C20.0172 37.4763 20.2652 37.0724 20.4267 36.6319C20.5882 36.1913 20.6598 35.7228 20.6375 35.2541C20.6375 33.3812 19.0146 31.8229 17.1104 31.8229H16.9833C16.8583 31.8229 16.6729 31.8229 16.5146 31.8833C13.925 27.5124 12.8312 22.8291 13.2396 17.777C13.4875 13.9687 14.7375 10.6583 16.9833 7.91245C18.8562 5.57078 22.3833 4.41453 24.7875 4.35412C31.5291 4.22703 34.3396 12.627 34.5562 15.9666L37.6771 16.902C36.9583 6.66453 30.5937 1.2937 24.5062 1.2937C18.7937 1.2937 13.5208 5.44578 11.3958 11.5333C8.49373 19.65 10.3979 27.452 13.9562 33.6958C13.6458 34.102 13.4583 34.8187 13.5208 35.5041V35.5041Z" fill="#A7A7A7"/>
</svg>
