<svg width="31" height="30" viewBox="0 0 31 30" fill="none" xmlns="http://www.w3.org/2000/svg">
<path d="M28.0248 0H2.14901C0.963351 0 0 0.970982 0 2.16295V27.8371C0 29.029 0.963351 30 2.14901 30H28.0248C29.2104 30 30.1805 29.029 30.1805 27.8371V2.16295C30.1805 0.970982 29.2104 0 28.0248 0ZM9.12152 25.7143H4.64834V11.3973H9.12826V25.7143H9.12152ZM6.88493 9.44196C5.45001 9.44196 4.29129 8.28348 4.29129 6.86384C4.29129 5.4442 5.45001 4.28571 6.88493 4.28571C8.31312 4.28571 9.47857 5.4442 9.47857 6.86384C9.47857 8.29018 8.31985 9.44196 6.88493 9.44196V9.44196ZM25.8892 25.7143H21.416V18.75C21.416 17.0893 21.3824 14.9531 19.0919 14.9531C16.761 14.9531 16.4039 16.7612 16.4039 18.6295V25.7143H11.9307V11.3973H16.222V13.3527H16.2827C16.8822 12.2277 18.3441 11.0424 20.5201 11.0424C25.0471 11.0424 25.8892 14.0089 25.8892 17.8661V25.7143V25.7143Z" fill="white" fill-opacity="0.4"/>
</svg>
