<svg width="31" height="30" viewBox="0 0 31 30" fill="none" xmlns="http://www.w3.org/2000/svg">
<path d="M10.3533 24.156C10.3533 24.28 10.2098 24.3793 10.0288 24.3793C9.82288 24.3979 9.67934 24.2986 9.67934 24.156C9.67934 24.0319 9.82288 23.9326 10.0039 23.9326C10.1911 23.914 10.3533 24.0133 10.3533 24.156ZM8.41248 23.8768C8.36879 24.0009 8.49361 24.1435 8.68083 24.1808C8.84309 24.2428 9.03031 24.1808 9.06775 24.0567C9.10519 23.9326 8.98662 23.79 8.7994 23.7341C8.63714 23.6907 8.45616 23.7527 8.41248 23.8768ZM11.1709 23.7713C10.9899 23.8148 10.8651 23.9326 10.8838 24.0753C10.9025 24.1994 11.0648 24.28 11.252 24.2366C11.433 24.1932 11.5578 24.0753 11.5391 23.9512C11.5203 23.8334 11.3518 23.7527 11.1709 23.7713ZM15.2773 0C6.62139 0 0 6.53216 0 15.1362C0 22.0158 4.35602 27.9028 10.578 29.9747C11.3768 30.1174 11.6576 29.6273 11.6576 29.2241C11.6576 28.8395 11.6389 26.718 11.6389 25.4152C11.6389 25.4152 7.27043 26.3457 6.35304 23.5666C6.35304 23.5666 5.6416 21.7615 4.61812 21.2962C4.61812 21.2962 3.189 20.3223 4.71798 20.3409C4.71798 20.3409 6.27191 20.4649 7.12689 21.9414C8.4936 24.3359 10.7839 23.6473 11.6764 23.2379C11.8199 22.2453 12.2255 21.5567 12.6749 21.1473C9.18632 20.7627 5.66656 20.2602 5.66656 14.2926C5.66656 12.5867 6.14086 11.7306 7.13937 10.6388C6.97711 10.2356 6.44665 8.57307 7.30163 6.4267C8.60594 6.02348 11.6077 8.10161 11.6077 8.10161C12.8559 7.75422 14.1976 7.57433 15.5269 7.57433C16.8562 7.57433 18.1979 7.75422 19.4461 8.10161C19.4461 8.10161 22.4478 6.01728 23.7521 6.4267C24.6071 8.57927 24.0767 10.2356 23.9144 10.6388C24.9129 11.7368 25.5245 12.5929 25.5245 14.2926C25.5245 20.2788 21.8487 20.7565 18.3602 21.1473C18.9343 21.6374 19.4211 22.5679 19.4211 24.0257C19.4211 26.1162 19.4024 28.703 19.4024 29.2117C19.4024 29.6149 19.6894 30.105 20.482 29.9623C26.7227 27.9028 30.9539 22.0158 30.9539 15.1362C30.9539 6.53216 23.9331 0 15.2773 0ZM6.06597 21.3955C5.98484 21.4575 6.00356 21.6002 6.10965 21.718C6.20951 21.8173 6.35304 21.8607 6.43417 21.7801C6.5153 21.718 6.49658 21.5753 6.39049 21.4575C6.29063 21.3582 6.1471 21.3148 6.06597 21.3955ZM5.39197 20.893C5.34829 20.9736 5.41069 21.0729 5.53551 21.1349C5.63536 21.1969 5.76017 21.1783 5.80386 21.0915C5.84754 21.0108 5.78514 20.9116 5.66032 20.8496C5.53551 20.8123 5.43566 20.8309 5.39197 20.893ZM7.41396 23.1014C7.31411 23.182 7.35156 23.3681 7.49509 23.486C7.63863 23.6287 7.81961 23.6473 7.90074 23.548C7.98187 23.4674 7.94442 23.2813 7.81961 23.1634C7.68231 23.0207 7.49509 23.0021 7.41396 23.1014ZM6.70252 22.1895C6.60267 22.2515 6.60267 22.4128 6.70252 22.5555C6.80237 22.6982 6.97087 22.7602 7.052 22.6982C7.15185 22.6175 7.15185 22.4562 7.052 22.3136C6.96463 22.1709 6.80237 22.1088 6.70252 22.1895Z" fill="white" fill-opacity="0.4"/>
</svg>
