<svg width="38" height="30" viewBox="0 0 38 30" fill="none" xmlns="http://www.w3.org/2000/svg">
<path d="M33.3401 7.47654C33.3636 7.80464 33.3636 8.13283 33.3636 8.46093C33.3636 18.4687 25.7007 30 11.695 30C7.38007 30 3.37175 28.7578 0 26.6016C0.613064 26.6719 1.20247 26.6953 1.83912 26.6953C5.39942 26.6953 8.67689 25.5 11.2941 23.461C7.94596 23.3906 5.1401 21.211 4.17337 18.2109C4.64498 18.2812 5.11652 18.3281 5.61171 18.3281C6.29547 18.3281 6.9793 18.2343 7.61588 18.0703C4.12626 17.3671 1.50896 14.3203 1.50896 10.6406V10.5469C2.5228 11.1094 3.70183 11.461 4.9514 11.5078C2.90006 10.1484 1.55614 7.82809 1.55614 5.20307C1.55614 3.79685 1.93333 2.50779 2.59357 1.38278C6.34257 5.97652 11.9779 8.97647 18.2969 9.30466C18.179 8.74215 18.1082 8.15627 18.1082 7.57032C18.1082 3.3984 21.5036 0 25.7241 0C27.9169 0 29.8975 0.91406 31.2886 2.39062C33.0098 2.06251 34.6603 1.42967 36.1222 0.562504C35.5563 2.32036 34.3538 3.79692 32.7741 4.73436C34.3067 4.57037 35.7922 4.1484 37.1597 3.56253C36.1224 5.06246 34.8255 6.39835 33.3401 7.47654V7.47654Z" fill="white" fill-opacity="0.4"/>
</svg>
