<svg width="31" height="31" viewBox="0 0 31 31" fill="none" xmlns="http://www.w3.org/2000/svg">
<path d="M26.7113 4.09684C25.3465 2.11382 23.2749 0.727926 20.9211 0.22323C18.5673 -0.281467 16.1096 0.13326 14.0517 1.3824L6.82097 5.97912C5.84376 6.59126 5.00631 7.4022 4.36307 8.35922C3.71982 9.31624 3.28519 10.3979 3.08741 11.5339C2.73599 13.4431 3.04017 15.4149 3.95056 17.1294C3.32853 18.0644 2.91063 19.1201 2.72412 20.2275C2.51945 21.3823 2.54655 22.5663 2.80384 23.7106C3.06113 24.8548 3.54347 25.9364 4.22278 26.8925C5.59094 28.8709 7.66037 30.2548 10.0113 30.7635C12.3623 31.2723 14.8187 30.8678 16.8824 29.6321L24.118 25.0306C25.0917 24.416 25.9258 23.6042 26.5663 22.6474C27.2069 21.6906 27.6398 20.6101 27.837 19.4757C28.1843 17.5726 27.8785 15.608 26.969 13.9006C27.9089 12.4272 28.3865 10.7063 28.3406 8.95928C28.2947 7.21224 27.7273 5.51885 26.7113 4.09684V4.09684ZM13.33 27.2916C12.1942 27.587 10.995 27.5262 9.89486 27.1175C8.79472 26.7087 7.84678 25.9717 7.17941 25.0063C6.34144 23.8458 6.03434 22.413 6.27653 20.9899L6.41797 20.304L6.54875 19.8797L6.93722 20.1374C7.78803 20.7745 8.74467 21.2562 9.76306 21.5605L10.0256 21.6516L9.99556 21.9092C9.97037 22.2677 10.076 22.6707 10.2833 22.9787C10.7076 23.5891 11.4438 23.8816 12.1549 23.6898C12.3109 23.6394 12.463 23.5891 12.5937 23.5077L19.7993 18.911C20.1626 18.6785 20.3951 18.3307 20.4852 17.917C20.5605 17.4937 20.4681 17.0576 20.2275 16.7012C20.0211 16.4114 19.732 16.1908 19.3979 16.0684C19.0639 15.946 18.7006 15.9275 18.3559 16.0154C18.1999 16.0706 18.0333 16.1316 17.9015 16.212L15.1764 17.9422C13.9328 18.6817 12.455 18.9221 11.041 18.615C9.62711 18.308 8.38217 17.4763 7.55722 16.2876C7.14505 15.7128 6.85228 15.0612 6.6962 14.3714C6.54013 13.6815 6.52392 12.9674 6.64853 12.2712C6.77367 11.5817 7.04229 10.9263 7.43698 10.3474C7.83167 9.76848 8.34361 9.27895 8.93962 8.91056L16.1297 4.31384C16.5893 4.03274 17.085 3.81537 17.6032 3.66769C18.7381 3.37328 19.9359 3.43355 21.0355 3.84039C22.1351 4.24722 23.0838 4.9811 23.7538 5.94328C24.2315 6.61593 24.5467 7.39028 24.6745 8.2054C24.8022 9.02052 24.7391 9.85417 24.49 10.6407L24.3592 11.0699L23.9863 10.8122C23.1253 10.1829 22.1653 9.70195 21.1459 9.38912L20.8882 9.31356L20.9134 9.05587C20.9374 8.6726 20.8364 8.29189 20.6257 7.97087C20.4226 7.67739 20.1337 7.45392 19.7986 7.33112C19.4635 7.20832 19.0986 7.19221 18.754 7.285C18.6009 7.3278 18.4536 7.38895 18.3152 7.46712L11.0951 12.1036C10.7318 12.3457 10.4993 12.6838 10.4237 13.1072C10.3482 13.5208 10.4489 13.9752 10.6814 14.3084C11.0951 14.9187 11.8468 15.1764 12.5434 14.9943C12.7007 14.9541 12.8519 14.8929 12.9929 14.8122L15.748 13.0558C16.2 12.7613 16.6956 12.54 17.2166 12.4C18.3524 12.1022 19.5524 12.1618 20.653 12.5707C21.7537 12.9797 22.7015 13.7181 23.3672 14.6853C23.7791 15.2575 24.0733 15.9058 24.2326 16.5927C24.3919 17.2795 24.4132 17.9911 24.2953 18.6862C24.1759 19.3738 23.913 20.0284 23.5235 20.6075C23.1341 21.1865 22.627 21.677 22.0352 22.0468L14.8296 26.6329C14.3609 26.9161 13.8571 27.1366 13.331 27.2887L13.33 27.2916Z" fill="#A7A7A7"/>
</svg>
