<?xml version="1.0" standalone="no"?>
<!DOCTYPE svg PUBLIC "-//W3C//DTD SVG 20010904//EN"
 "http://www.w3.org/TR/2001/REC-SVG-20010904/DTD/svg10.dtd">
<svg version="1.0" xmlns="http://www.w3.org/2000/svg"
 width="260.000000pt" height="260.000000pt" viewBox="0 0 260.000000 260.000000"
 preserveAspectRatio="xMidYMid meet">
<metadata>
Created by potrace 1.11, written by Peter Selinger 2001-2013
</metadata>
<g transform="translate(0.000000,260.000000) scale(0.100000,-0.100000)"
fill="#000000" stroke="none">
<path d="M233 2581 c-136 -46 -224 -165 -229 -307 -12 -353 437 -492 627 -194
56 87 63 222 17 321 -71 154 -256 234 -415 180z"/>
<path d="M1193 2581 c-90 -31 -156 -90 -201 -181 -23 -48 -27 -67 -27 -145 1
-81 4 -96 32 -151 122 -235 453 -250 591 -26 106 173 40 398 -144 488 -71 35
-175 41 -251 15z"/>
<path d="M2153 2581 c-90 -31 -156 -90 -201 -181 -23 -48 -27 -67 -27 -145 1
-81 4 -96 33 -151 94 -184 328 -243 496 -126 170 118 193 374 47 519 -91 91
-231 124 -348 84z"/>
<path d="M280 1636 c-114 -24 -195 -87 -246 -191 -25 -52 -29 -71 -29 -145 1
-71 5 -95 27 -143 65 -139 223 -222 369 -192 104 21 195 88 239 174 30 60 35
84 35 171 0 65 -5 85 -33 142 -49 100 -144 171 -245 184 -23 3 -46 7 -52 8 -5
2 -35 -2 -65 -8z"/>
<path d="M1190 1624 c-89 -32 -152 -90 -197 -181 -24 -50 -28 -70 -28 -143 0
-71 4 -94 26 -141 34 -71 88 -128 159 -165 49 -26 65 -29 150 -29 85 0 101 3
148 28 70 37 128 97 161 166 22 47 26 70 26 141 0 71 -5 94 -26 140 -34 71
-90 130 -159 165 -70 36 -189 45 -260 19z"/>
<path d="M2145 1623 c-147 -59 -236 -200 -221 -355 12 -126 81 -223 199 -278
54 -26 69 -29 146 -27 66 2 97 9 134 26 66 33 133 101 165 169 23 48 27 70 27
142 0 70 -5 95 -26 140 -33 71 -90 130 -159 166 -46 23 -69 28 -140 30 -59 2
-97 -2 -125 -13z"/>
<path d="M287 679 c-112 -17 -205 -89 -256 -198 -22 -47 -26 -70 -26 -141 0
-73 4 -93 29 -144 36 -72 90 -127 164 -163 49 -24 69 -28 143 -28 75 0 93 4
143 29 72 37 128 93 164 165 23 49 27 68 27 146 0 83 -3 95 -34 153 -73 135
-207 203 -354 181z"/>
<path d="M1247 679 c-109 -17 -198 -84 -254 -191 -24 -46 -27 -65 -28 -143 0
-80 3 -97 29 -150 36 -72 91 -126 165 -163 48 -23 69 -27 142 -27 75 0 93 4
143 29 187 94 251 322 140 497 -66 106 -208 168 -337 148z"/>
<path d="M2207 679 c-109 -17 -204 -89 -255 -193 -22 -43 -26 -65 -26 -141 -1
-80 2 -97 28 -150 36 -72 91 -126 165 -163 48 -23 69 -27 141 -27 72 0 93 4
141 27 72 36 131 94 166 166 24 49 28 69 28 143 0 79 -3 92 -35 154 -69 135
-207 206 -353 184z"/>
</g>
</svg>
