<svg width="290" height="71" viewBox="0 0 290 71" fill="none" xmlns="http://www.w3.org/2000/svg">
<path d="M0.571289 36.1221C0.776367 34.4229 1.14258 32.8115 1.66992 31.2881C2.19727 29.7354 2.8418 28.2412 3.60352 26.8057C4.36523 25.3408 5.21484 23.9053 6.15234 22.499C7.08984 21.0928 8.08594 19.6719 9.14062 18.2363C9.75586 17.4453 10.4297 16.6396 11.1621 15.8193C11.8945 14.999 12.6855 14.252 13.5352 13.5781C14.3848 12.9043 15.293 12.3623 16.2598 11.9521C17.2559 11.5127 18.2959 11.293 19.3799 11.293C19.9658 11.293 20.4199 11.3369 20.7422 11.4248C21.0645 11.4834 21.2988 11.6299 21.4453 11.8643C21.6211 12.0693 21.7236 12.377 21.7529 12.7871C21.7822 13.1973 21.7822 13.7246 21.7529 14.3691C21.7529 15.1016 21.6211 15.8486 21.3574 16.6104C21.0938 17.3721 20.7275 18.0898 20.2588 18.7637C19.79 19.4375 19.2334 20.0381 18.5889 20.5654C17.9443 21.0635 17.2559 21.4297 16.5234 21.6641V21.0488C16.5234 20.4336 16.6553 19.8477 16.9189 19.291C17.2119 18.7344 17.5342 18.1777 17.8857 17.6211C18.2373 17.0352 18.5449 16.4346 18.8086 15.8193C19.1016 15.2041 19.248 14.5449 19.248 13.8418C18.9258 13.8418 18.6475 13.8271 18.4131 13.7979C18.1787 13.7393 17.959 13.71 17.7539 13.71C17.5781 13.6807 17.3877 13.71 17.1826 13.7979C17.0068 13.8564 16.7871 14.0029 16.5234 14.2373C15.0879 15.4092 13.6084 16.7861 12.085 18.3682C10.5908 19.9209 9.22852 21.6055 7.99805 23.4219C6.76758 25.2383 5.75684 27.1426 4.96582 29.1348C4.2041 31.0977 3.82324 33.0752 3.82324 35.0674C3.82324 35.1553 3.82324 35.3018 3.82324 35.5068C3.85254 35.7119 3.86719 35.917 3.86719 36.1221C3.89648 36.3271 3.92578 36.5176 3.95508 36.6934C3.98438 36.8691 3.99902 36.9717 3.99902 37.001C4.32129 37.3232 4.70215 37.5137 5.1416 37.5723C5.61035 37.6309 5.96191 37.6602 6.19629 37.6602C7.45605 37.6602 8.62793 37.4404 9.71191 37.001C10.8252 36.5615 11.9092 36.0928 12.9639 35.5947C14.0186 35.0674 15.0732 34.584 16.1279 34.1445C17.2119 33.7051 18.3545 33.4854 19.5557 33.4854C19.5557 33.9541 19.2773 34.4814 18.7207 35.0674C18.1934 35.624 17.4902 36.1807 16.6113 36.7373C15.7617 37.2939 14.8096 37.8359 13.7549 38.3633C12.7002 38.8613 11.6602 39.3154 10.6348 39.7256C9.63867 40.1357 8.71582 40.458 7.86621 40.6924C7.0459 40.9268 6.41602 41.0439 5.97656 41.0439C5.33203 41.0439 4.6875 40.9268 4.04297 40.6924C3.39844 40.4287 2.8125 40.0771 2.28516 39.6377C1.78711 39.1982 1.37695 38.6855 1.05469 38.0996C0.732422 37.4844 0.571289 36.8252 0.571289 36.1221Z" fill="white" fill-opacity="0.6" />
<path d="M34.9805 41.0439C34.248 41.1611 33.5742 41.0439 32.959 40.6924C32.373 40.3115 31.9043 39.8281 31.5527 39.2422C31.2012 38.627 30.9961 37.9678 30.9375 37.2646C30.8789 36.5322 31.0254 35.873 31.377 35.2871C32.666 33.6172 33.5449 32.2988 34.0137 31.332C34.4824 30.3359 34.6436 29.6475 34.4971 29.2666C34.3799 28.8564 34.0137 28.6953 33.3984 28.7832C32.8125 28.8418 32.0947 29.1055 31.2451 29.5742C30.3955 30.0137 29.4727 30.5996 28.4766 31.332C27.5098 32.0645 26.6016 32.8701 25.752 33.749C24.9023 34.6279 24.1553 35.5508 23.5107 36.5176C22.8955 37.4551 22.5 38.3779 22.3242 39.2861C22.0312 39.4619 21.7822 39.6084 21.5771 39.7256C21.3721 39.8135 21.1377 39.8574 20.874 39.8574C20.4346 39.8574 20.1709 39.7109 20.083 39.418C19.9951 39.125 19.9512 38.8174 19.9512 38.4951C19.9512 37.7627 20.1709 37.0156 20.6104 36.2539C21.0791 35.4629 21.6064 34.7305 22.1924 34.0566C22.8076 33.3535 23.3936 32.7236 23.9502 32.167C24.5068 31.5811 24.9023 31.1123 25.1367 30.7607C25.8691 29.5596 26.6016 28.2705 27.334 26.8936C28.0664 25.4873 28.7988 24.0664 29.5312 22.6309C30.2637 21.166 31.0107 19.7305 31.7725 18.3242C32.5635 16.8887 33.3838 15.5264 34.2334 14.2373C34.3799 14.0029 34.4971 13.8418 34.585 13.7539C34.7021 13.666 34.8633 13.6221 35.0684 13.6221C35.3027 13.6221 35.4785 13.666 35.5957 13.7539C35.7129 13.8418 35.8301 14.0029 35.9473 14.2373C35.9473 14.3545 35.918 14.5449 35.8594 14.8086C35.8301 15.0723 35.7861 15.3652 35.7275 15.6875C35.6982 15.9805 35.6396 16.2588 35.5518 16.5225C35.4932 16.7861 35.4492 16.9619 35.4199 17.0498C35.2441 17.4014 34.9512 18.0166 34.541 18.8955C34.1309 19.7744 33.6768 20.7119 33.1787 21.708C32.71 22.7041 32.2559 23.6855 31.8164 24.6523C31.377 25.5898 31.0547 26.293 30.8496 26.7617C31.2891 26.4688 31.6846 26.249 32.0361 26.1025C32.3877 25.9268 32.7246 25.8096 33.0469 25.751C33.3984 25.6631 33.75 25.6191 34.1016 25.6191C34.4824 25.5898 34.8926 25.5752 35.332 25.5752C36.3867 25.8389 37.0752 26.2344 37.3975 26.7617C37.749 27.2891 37.8516 27.9043 37.7051 28.6074C37.5879 29.2812 37.3096 30.0283 36.8701 30.8486C36.4307 31.6689 35.9619 32.5039 35.4639 33.3535C34.9951 34.1738 34.5703 34.9795 34.1895 35.7705C33.8086 36.5322 33.6328 37.2354 33.6621 37.8799C33.6621 38.1436 33.7207 38.334 33.8379 38.4512C33.9551 38.5684 34.1016 38.6562 34.2773 38.7148C34.4531 38.7734 34.6436 38.8027 34.8486 38.8027C35.0537 38.8027 35.2441 38.8027 35.4199 38.8027C36.0352 38.8027 36.6211 38.7148 37.1777 38.5391C37.7637 38.334 38.335 38.1143 38.8916 37.8799C39.4482 37.6455 40.0049 37.4404 40.5615 37.2646C41.1475 37.0596 41.748 36.957 42.3633 36.957C42.3633 37.5137 42.085 38.041 41.5283 38.5391C40.9717 39.0371 40.2979 39.4766 39.5068 39.8574C38.7451 40.209 37.9395 40.502 37.0898 40.7363C36.2402 40.9414 35.5371 41.0439 34.9805 41.0439Z" fill="white" fill-opacity="0.6" />
<path d="M40.9131 38.7148C40.415 37.6016 40.1953 36.5176 40.2539 35.4629C40.3125 34.3789 40.5469 33.3682 40.957 32.4307C41.3965 31.4639 41.9531 30.5996 42.627 29.8379C43.3301 29.0469 44.0771 28.373 44.8682 27.8164C45.6592 27.2305 46.4502 26.791 47.2412 26.498C48.0615 26.2051 48.7793 26.0879 49.3945 26.1465C50.0098 26.1758 50.4932 26.3955 50.8447 26.8057C51.1963 27.2158 51.3135 27.8457 51.1963 28.6953C51.1963 29.8379 50.8301 30.834 50.0977 31.6836C49.3945 32.5332 48.6035 33.2949 47.7246 33.9688C46.875 34.6426 46.084 35.2578 45.3516 35.8145C44.6484 36.3418 44.2969 36.8398 44.2969 37.3086C44.2969 37.5723 44.4434 37.7773 44.7363 37.9238C45.0586 38.0703 45.4248 38.1875 45.835 38.2754C46.2451 38.334 46.6553 38.3779 47.0654 38.4072C47.4756 38.4365 47.7686 38.4658 47.9443 38.4951C50.6982 37.9092 52.7637 37.5576 54.1406 37.4404C55.5176 37.2939 56.3818 37.3086 56.7334 37.4844C57.085 37.6309 57.0117 37.8799 56.5137 38.2314C56.0449 38.5537 55.3125 38.9053 54.3164 39.2861C53.3203 39.6377 52.1631 39.96 50.8447 40.2529C49.5264 40.5459 48.2227 40.7217 46.9336 40.7803C45.6445 40.8096 44.4434 40.6777 43.3301 40.3848C42.2461 40.0918 41.4404 39.5352 40.9131 38.7148ZM48.6035 28.6953C48.0176 28.6953 47.4609 28.8564 46.9336 29.1787C46.4062 29.501 45.9229 29.9111 45.4834 30.4092C45.0732 30.8779 44.7217 31.4053 44.4287 31.9912C44.1357 32.5479 43.916 33.0752 43.7695 33.5732C43.8281 33.6025 43.8721 33.6172 43.9014 33.6172H44.0332C44.4434 33.6172 44.9121 33.4414 45.4395 33.0898C45.9668 32.7383 46.4648 32.3135 46.9336 31.8154C47.4023 31.2881 47.7979 30.7461 48.1201 30.1895C48.4424 29.6328 48.6035 29.1348 48.6035 28.6953Z" fill="white" fill-opacity="0.6" />
<path d="M55.9863 38.7148C55.4883 37.6016 55.2686 36.5176 55.3271 35.4629C55.3857 34.3789 55.6201 33.3682 56.0303 32.4307C56.4697 31.4639 57.0264 30.5996 57.7002 29.8379C58.4033 29.0469 59.1504 28.373 59.9414 27.8164C60.7324 27.2305 61.5234 26.791 62.3145 26.498C63.1348 26.2051 63.8525 26.0879 64.4678 26.1465C65.083 26.1758 65.5664 26.3955 65.918 26.8057C66.2695 27.2158 66.3867 27.8457 66.2695 28.6953C66.2695 29.8379 65.9033 30.834 65.1709 31.6836C64.4678 32.5332 63.6768 33.2949 62.7979 33.9688C61.9482 34.6426 61.1572 35.2578 60.4248 35.8145C59.7217 36.3418 59.3701 36.8398 59.3701 37.3086C59.3701 37.5723 59.5166 37.7773 59.8096 37.9238C60.1318 38.0703 60.498 38.1875 60.9082 38.2754C61.3184 38.334 61.7285 38.3779 62.1387 38.4072C62.5488 38.4365 62.8418 38.4658 63.0176 38.4951C65.7715 37.9092 67.8369 37.5576 69.2139 37.4404C70.5908 37.2939 71.4551 37.3086 71.8066 37.4844C72.1582 37.6309 72.085 37.8799 71.5869 38.2314C71.1182 38.5537 70.3857 38.9053 69.3896 39.2861C68.3936 39.6377 67.2363 39.96 65.918 40.2529C64.5996 40.5459 63.2959 40.7217 62.0068 40.7803C60.7178 40.8096 59.5166 40.6777 58.4033 40.3848C57.3193 40.0918 56.5137 39.5352 55.9863 38.7148ZM63.6768 28.6953C63.0908 28.6953 62.5342 28.8564 62.0068 29.1787C61.4795 29.501 60.9961 29.9111 60.5566 30.4092C60.1465 30.8779 59.7949 31.4053 59.502 31.9912C59.209 32.5479 58.9893 33.0752 58.8428 33.5732C58.9014 33.6025 58.9453 33.6172 58.9746 33.6172H59.1064C59.5166 33.6172 59.9854 33.4414 60.5127 33.0898C61.04 32.7383 61.5381 32.3135 62.0068 31.8154C62.4756 31.2881 62.8711 30.7461 63.1934 30.1895C63.5156 29.6328 63.6768 29.1348 63.6768 28.6953Z" fill="white" fill-opacity="0.6" />
<path d="M80.5518 37.6162C80.5518 36.7373 80.7275 35.9316 81.0791 35.1992C81.46 34.4375 81.8701 33.7197 82.3096 33.0459C82.749 32.3721 83.1445 31.6982 83.4961 31.0244C83.877 30.3506 84.0674 29.6328 84.0674 28.8711C84.0674 28.6953 84.0527 28.4902 84.0234 28.2559C84.0234 27.9922 83.9941 27.7432 83.9355 27.5088C83.9062 27.2744 83.8184 27.084 83.6719 26.9375C83.5547 26.7617 83.3936 26.6738 83.1885 26.6738C83.1592 26.6738 83.1006 26.6885 83.0127 26.7178C82.9541 26.7178 82.9248 26.7324 82.9248 26.7617C82.5146 27.3184 82.0166 27.9482 81.4307 28.6514C80.874 29.3252 80.2734 29.999 79.6289 30.6729C78.9844 31.3467 78.3545 31.9912 77.7393 32.6064C77.124 33.2217 76.5674 33.7344 76.0693 34.1445C75.7178 34.4668 75.2344 34.9062 74.6191 35.4629C74.0332 36.0195 73.4326 36.5762 72.8174 37.1328C72.2314 37.6602 71.7041 38.1289 71.2354 38.5391C70.7959 38.9492 70.5469 39.1543 70.4883 39.1543L68.4668 37.4404C68.7305 37.4404 68.9941 37.3818 69.2578 37.2646C69.4922 37.1475 69.7266 37.0156 69.9609 36.8691C71.7188 35.6973 73.3008 34.3496 74.707 32.8262C76.1426 31.3027 77.5488 29.6621 78.9258 27.9043C78.9844 27.8164 79.1309 27.5674 79.3652 27.1572C79.6289 26.7178 79.9072 26.2344 80.2002 25.707C80.4932 25.1504 80.7861 24.6084 81.0791 24.0811C81.3721 23.5244 81.5918 23.085 81.7383 22.7627C81.9141 22.3818 82.0166 22.0742 82.0459 21.8398C82.1045 21.6055 82.1484 21.4297 82.1777 21.3125C82.2363 21.166 82.3242 21.0635 82.4414 21.0049C82.5586 20.9463 82.8076 20.917 83.1885 20.917C83.2471 20.917 83.3789 20.9316 83.584 20.9609C83.8184 20.9902 83.9648 21.0195 84.0234 21.0488C84.4043 21.8398 84.7412 22.543 85.0342 23.1582C85.3271 23.7734 85.5762 24.3594 85.7812 24.916C85.9863 25.4434 86.1328 25.9854 86.2207 26.542C86.3379 27.0986 86.3965 27.7139 86.3965 28.3877C86.0156 29.3545 85.5908 30.3506 85.1221 31.376C84.6533 32.3721 84.2578 33.3242 83.9355 34.2324C83.6133 35.1406 83.4082 35.9609 83.3203 36.6934C83.2617 37.4258 83.4229 38.0117 83.8037 38.4512C84.2139 38.8613 84.8877 39.0811 85.8252 39.1104C86.792 39.1396 88.1543 38.8906 89.9121 38.3633C90.3809 38.5977 90.4248 38.8906 90.0439 39.2422C89.6631 39.5645 89.0771 39.8721 88.2861 40.165C87.5244 40.458 86.6748 40.707 85.7373 40.9121C84.8291 41.0879 84.0674 41.1318 83.4521 41.0439C82.8955 41.0439 82.4268 40.9561 82.0459 40.7803C81.6943 40.5752 81.4014 40.3115 81.167 39.9893C80.9619 39.667 80.8008 39.3008 80.6836 38.8906C80.5957 38.4805 80.5518 38.0557 80.5518 37.6162Z" fill="white" fill-opacity="0.6" />
<path d="M87.9785 36.1221C87.9785 35.5654 88.0518 35.082 88.1982 34.6719C88.374 34.2617 88.7988 34.0566 89.4727 34.0566C89.5312 34.0566 89.6631 34.0713 89.8682 34.1006C90.1025 34.1006 90.2637 34.1152 90.3516 34.1445C90.3223 35.5215 90.542 36.5615 91.0107 37.2646C91.4795 37.9385 92.3584 38.2754 93.6475 38.2754C94.7021 38.2754 95.7422 38.1143 96.7676 37.792C97.793 37.4697 98.7158 37.001 99.5361 36.3857C100.386 35.7412 101.06 34.9648 101.558 34.0566C102.085 33.1484 102.349 32.123 102.349 30.9805C102.349 30.2773 102.1 29.7793 101.602 29.4863C101.133 29.1934 100.605 28.959 100.02 28.7832C99.4336 28.6074 98.8916 28.417 98.3936 28.2119C97.9248 27.9775 97.6904 27.582 97.6904 27.0254C97.6904 26.3516 98.1006 25.707 98.9209 25.0918C99.7412 24.4766 100.708 23.9346 101.821 23.4658C102.935 22.9678 104.033 22.5869 105.117 22.3232C106.23 22.0303 107.08 21.8838 107.666 21.8838C107.666 22.7334 107.476 23.334 107.095 23.6855C106.743 24.0371 106.304 24.3154 105.776 24.5205C105.249 24.7256 104.707 24.9307 104.15 25.1357C103.623 25.3115 103.184 25.6631 102.832 26.1904C103.301 26.5713 103.682 26.9229 103.975 27.2451C104.297 27.5381 104.546 27.8604 104.722 28.2119C104.897 28.5635 105.015 28.959 105.073 29.3984C105.132 29.8086 105.161 30.3066 105.161 30.8926C105.161 32.416 104.824 33.8076 104.15 35.0674C103.506 36.2979 102.656 37.3672 101.602 38.2754C100.547 39.1543 99.3457 39.8428 97.998 40.3408C96.6504 40.8096 95.2734 41.0439 93.8672 41.0439C93.1055 41.0439 92.3584 40.9561 91.626 40.7803C90.9229 40.5752 90.293 40.2676 89.7363 39.8574C89.209 39.4473 88.7842 38.9346 88.4619 38.3193C88.1396 37.7041 87.9785 36.9717 87.9785 36.1221Z" fill="white" fill-opacity="0.6" />
<path d="M114.434 38.1436C114.434 38.085 114.507 37.9824 114.653 37.8359C114.8 37.6895 114.917 37.6016 115.005 37.5723C115.122 37.543 115.342 37.5283 115.664 37.5283C115.986 37.499 116.323 37.4697 116.675 37.4404C117.056 37.4111 117.407 37.3965 117.729 37.3965C118.052 37.3672 118.271 37.3525 118.389 37.3525C118.389 38.1729 118.242 38.9492 117.949 39.6816C117.686 40.3848 117.085 40.8242 116.147 41C115.767 41.0586 115.459 40.9707 115.225 40.7363C115.02 40.502 114.858 40.209 114.741 39.8574C114.624 39.5059 114.536 39.1689 114.478 38.8467C114.448 38.4951 114.434 38.2607 114.434 38.1436ZM116.104 22.0156C116.104 21.1367 116.206 20.3018 116.411 19.5107C116.616 18.6904 116.865 17.8994 117.158 17.1377C117.451 16.376 117.759 15.6143 118.081 14.8525C118.433 14.0908 118.74 13.3145 119.004 12.5234C119.121 12.1719 119.312 11.542 119.575 10.6338C119.868 9.69629 120.161 8.71484 120.454 7.68945C120.776 6.66406 121.069 5.69727 121.333 4.78906C121.597 3.85156 121.772 3.20703 121.86 2.85547C121.978 2.03516 122.344 1.46387 122.959 1.1416C123.604 0.790039 124.277 0.614258 124.98 0.614258C124.98 2.72363 124.658 4.73047 124.014 6.63477C123.398 8.50977 122.681 10.3555 121.86 12.1719C121.04 13.9883 120.234 15.8193 119.443 17.665C118.682 19.4814 118.154 21.3857 117.861 23.3779H117.598C116.602 23.3779 116.104 22.9238 116.104 22.0156Z" fill="white" fill-opacity="0.6" />
<path d="M181.318 38.9785C181.318 37.2793 181.538 35.5654 181.978 33.8369C182.446 32.0791 183.018 30.3506 183.691 28.6514C184.395 26.9521 185.142 25.3115 185.933 23.7295C186.724 22.1182 187.471 20.6094 188.174 19.2031V18.6318C187.852 18.9834 187.339 19.54 186.636 20.3018C185.962 21.0342 185.186 21.8691 184.307 22.8066C183.457 23.7441 182.549 24.7402 181.582 25.7949C180.645 26.8203 179.736 27.8018 178.857 28.7393C178.008 29.6768 177.246 30.5264 176.572 31.2881C175.898 32.0205 175.4 32.5625 175.078 32.9141C174.756 33.2656 174.448 33.793 174.155 34.4961C173.862 35.1699 173.54 35.8584 173.188 36.5615C172.837 37.2646 172.441 37.8799 172.002 38.4072C171.592 38.9346 171.123 39.1982 170.596 39.1982C170.156 39.1982 169.805 39.1543 169.541 39.0664C169.307 38.9785 169.131 38.8467 169.014 38.6709C168.896 38.4658 168.823 38.2168 168.794 37.9238C168.765 37.6309 168.75 37.2793 168.75 36.8691C168.75 34.7012 169.058 32.6064 169.673 30.585C170.317 28.5342 170.991 26.4541 171.694 24.3447V23.7734C171.636 23.832 171.533 23.9346 171.387 24.0811C171.24 24.1982 171.152 24.2861 171.123 24.3447C170.42 25.3994 169.702 26.542 168.97 27.7725C168.237 28.9736 167.476 30.1748 166.685 31.376C165.894 32.5479 165.044 33.6758 164.136 34.7598C163.228 35.8438 162.246 36.8105 161.191 37.6602C160.137 38.4805 158.979 39.1396 157.72 39.6377C156.489 40.1357 155.127 40.3848 153.633 40.3848C153.311 40.3848 152.871 40.3701 152.314 40.3408C151.787 40.3115 151.26 40.2236 150.732 40.0771C150.234 39.9307 149.795 39.6963 149.414 39.374C149.062 39.0518 148.887 38.5977 148.887 38.0117C148.887 37.7773 149.019 37.4844 149.282 37.1328C149.575 36.752 149.824 36.4883 150.029 36.3418C150.439 37.0156 150.776 37.4697 151.04 37.7041C151.333 37.9092 151.743 38.0117 152.271 38.0117C153.149 38.0117 154.072 37.8799 155.039 37.6162C156.035 37.3232 156.987 36.9424 157.896 36.4736C158.833 36.0049 159.712 35.4629 160.532 34.8477C161.353 34.2324 162.041 33.5879 162.598 32.9141C163.037 32.3281 163.564 31.5811 164.18 30.6729C164.824 29.7354 165.498 28.7246 166.201 27.6406C166.934 26.5273 167.681 25.3994 168.442 24.2568C169.204 23.1143 169.937 22.0303 170.64 21.0049C171.372 19.9502 172.046 19.0127 172.661 18.1924C173.276 17.3721 173.804 16.7568 174.243 16.3467C174.653 16.3467 174.961 16.4199 175.166 16.5664C175.371 16.6836 175.518 16.8594 175.605 17.0938C175.693 17.3281 175.737 17.6064 175.737 17.9287C175.737 18.251 175.737 18.5879 175.737 18.9395C175.737 20.1699 175.547 21.3711 175.166 22.543C174.814 23.7148 174.419 24.8574 173.979 25.9707C173.54 27.0547 173.13 28.124 172.749 29.1787C172.397 30.2334 172.222 31.2734 172.222 32.2988C172.222 32.3574 172.222 32.46 172.222 32.6064C172.251 32.7529 172.266 32.8555 172.266 32.9141C175.02 29.8672 177.393 27.2305 179.385 25.0039C181.377 22.7773 183.062 20.8877 184.438 19.335C185.845 17.7529 186.987 16.4785 187.866 15.5117C188.745 14.5156 189.448 13.7539 189.976 13.2266C190.503 12.6699 190.898 12.2891 191.162 12.084C191.455 11.8789 191.689 11.7764 191.865 11.7764C192.158 11.7764 192.378 11.8643 192.524 12.04C192.671 12.2158 192.759 12.4209 192.788 12.6553C192.847 12.8896 192.861 13.1387 192.832 13.4023C192.832 13.666 192.832 13.8857 192.832 14.0615C192.832 15.292 192.598 16.5518 192.129 17.8408C191.689 19.1006 191.118 20.4043 190.415 21.752C189.741 23.0703 188.994 24.418 188.174 25.7949C187.383 27.1426 186.636 28.5342 185.933 29.9697C185.259 31.4053 184.688 32.8701 184.219 34.3643C183.779 35.8291 183.56 37.3379 183.56 38.8906C183.56 39.6816 183.574 40.2676 183.604 40.6484C183.633 41 183.721 41.293 183.867 41.5273C184.014 41.791 184.248 42.0547 184.57 42.3184C184.893 42.6113 185.347 43.0654 185.933 43.6807C185.259 44.0615 184.6 44.208 183.955 44.1201C183.34 44.0615 182.798 43.8125 182.329 43.373C181.89 42.9336 181.567 42.333 181.362 41.5713C181.157 40.8096 181.143 39.9453 181.318 38.9785Z" fill="white" fill-opacity="0.6" />
<path d="M190.723 38.1436C190.986 36.4736 191.484 34.9355 192.217 33.5293C192.949 32.123 193.784 30.9072 194.722 29.8818C195.688 28.8271 196.729 27.9629 197.842 27.2891C198.955 26.6152 200.039 26.1904 201.094 26.0146C202.148 25.8096 203.115 25.8535 203.994 26.1465C204.902 26.4395 205.635 27.0254 206.191 27.9043C206.191 28.5781 206.03 29.2227 205.708 29.8379C205.415 30.4531 205.078 31.0684 204.697 31.6836C204.346 32.2988 204.009 32.9287 203.687 33.5732C203.394 34.2178 203.247 34.9062 203.247 35.6387C203.247 36.4004 203.408 37.0156 203.73 37.4844C204.082 37.9238 204.683 38.1436 205.532 38.1436C206.235 38.1436 206.909 38.041 207.554 37.8359C208.228 37.6309 208.901 37.5283 209.575 37.5283C209.692 37.5283 209.883 37.543 210.146 37.5723C210.439 37.5723 210.63 37.5723 210.718 37.5723C210.366 38.0703 209.912 38.4951 209.355 38.8467C208.799 39.1982 208.213 39.5059 207.598 39.7695C206.982 40.0039 206.338 40.1797 205.664 40.2969C205.02 40.4141 204.419 40.4727 203.862 40.4727C203.335 40.4727 202.866 40.3555 202.456 40.1211C202.046 39.8867 201.694 39.5791 201.401 39.1982C201.108 38.8174 200.874 38.3926 200.698 37.9238C200.552 37.4258 200.479 36.9424 200.479 36.4736C200.039 36.9717 199.556 37.499 199.028 38.0557C198.53 38.583 197.988 39.0664 197.402 39.5059C196.846 39.9453 196.23 40.3115 195.557 40.6045C194.912 40.8975 194.238 41.0439 193.535 41.0439C192.773 41.0439 192.114 40.7656 191.558 40.209C191.001 39.623 190.723 38.9346 190.723 38.1436ZM193.623 36.7812C193.623 37.0156 193.623 37.2793 193.623 37.5723C193.652 37.8652 193.843 38.0557 194.194 38.1436C194.927 37.9678 195.762 37.5869 196.699 37.001C197.637 36.3857 198.516 35.6826 199.336 34.8916C200.156 34.0713 200.845 33.207 201.401 32.2988C201.958 31.3613 202.236 30.4678 202.236 29.6182C202.236 29.5596 202.222 29.4717 202.192 29.3545C202.192 29.208 202.192 29.1055 202.192 29.0469C201.196 29.0469 200.186 29.252 199.16 29.6621C198.135 30.0723 197.212 30.6436 196.392 31.376C195.571 32.0791 194.897 32.8994 194.37 33.8369C193.872 34.7744 193.623 35.7559 193.623 36.7812Z" fill="white" fill-opacity="0.6" />
<path d="M201.182 64.335C201.182 62.665 201.475 61.1709 202.061 59.8525C202.617 58.5342 203.364 57.3037 204.302 56.1611C205.239 55.0479 206.309 54.0078 207.51 53.041C208.711 52.1035 209.941 51.1807 211.201 50.2725C212.461 49.3936 213.691 48.5 214.893 47.5918C216.094 46.6836 217.163 45.7168 218.101 44.6914C219.038 43.666 219.785 42.5527 220.342 41.3516C220.928 40.1504 221.221 38.8174 221.221 37.3525C221.221 37.2939 221.221 37.1621 221.221 36.957C221.221 36.7227 221.206 36.5762 221.177 36.5176C220.972 36.6934 220.576 36.957 219.99 37.3086C219.404 37.6309 218.774 37.9824 218.101 38.3633C217.456 38.7148 216.826 39.0371 216.211 39.3301C215.596 39.623 215.156 39.8135 214.893 39.9014C214.863 39.9014 214.746 39.916 214.541 39.9453C214.365 39.9746 214.146 40.0039 213.882 40.0332C213.647 40.0625 213.413 40.0918 213.179 40.1211C212.944 40.1211 212.754 40.1211 212.607 40.1211C211.289 39.8867 210.41 39.4326 209.971 38.7588C209.531 38.0557 209.414 37.2354 209.619 36.2979C209.824 35.3604 210.278 34.3643 210.981 33.3096C211.714 32.2256 212.578 31.2002 213.574 30.2334C214.6 29.2373 215.698 28.3584 216.87 27.5967C218.071 26.8057 219.229 26.249 220.342 25.9268C221.484 25.5752 222.524 25.502 223.462 25.707C224.429 25.8828 225.176 26.4541 225.703 27.4209C225.879 28.6514 225.879 29.8086 225.703 30.8926C225.527 31.9473 225.293 32.9873 225 34.0127C224.707 35.0381 224.414 36.0781 224.121 37.1328C223.828 38.1582 223.652 39.2861 223.594 40.5166H223.989C224.165 40.3408 224.458 40.0332 224.868 39.5938C225.308 39.1543 225.762 38.7002 226.23 38.2314C226.729 37.7334 227.197 37.2793 227.637 36.8691C228.076 36.4297 228.384 36.1221 228.56 35.9463C228.647 35.8584 228.823 35.7412 229.087 35.5947C229.38 35.4482 229.585 35.375 229.702 35.375V35.5068V35.5947C229.702 35.624 229.717 35.6387 229.746 35.6387C229.746 36.6934 229.438 37.6602 228.823 38.5391C228.237 39.418 227.52 40.2383 226.67 41C225.82 41.7617 224.941 42.4648 224.033 43.1094C223.125 43.7832 222.363 44.4277 221.748 45.043C221.25 46.0684 220.708 47.3428 220.122 48.8662C219.536 50.4189 218.892 52.0596 218.188 53.7881C217.485 55.5459 216.694 57.3184 215.815 59.1055C214.966 60.9219 213.999 62.5918 212.915 64.1152C211.86 65.6387 210.688 66.9424 209.399 68.0264C208.11 69.1396 206.675 69.8574 205.093 70.1797C204.331 70.1797 203.701 69.9893 203.203 69.6084C202.676 69.2275 202.266 68.7441 201.973 68.1582C201.68 67.6016 201.475 66.9717 201.357 66.2686C201.24 65.5947 201.182 64.9502 201.182 64.335ZM203.511 66.708C203.745 67.2646 204.023 67.6016 204.346 67.7188C204.668 67.8359 205.034 67.8945 205.444 67.8945C206.206 67.8945 207.041 67.499 207.949 66.708C208.857 65.917 209.766 64.8916 210.674 63.6318C211.611 62.4014 212.505 61.0244 213.354 59.501C214.204 57.9775 214.951 56.498 215.596 55.0625C216.27 53.627 216.797 52.3086 217.178 51.1074C217.588 49.9355 217.793 49.0566 217.793 48.4707C217.793 48.4121 217.778 48.3096 217.749 48.1631C217.749 48.0459 217.749 47.958 217.749 47.8994C217.661 47.958 217.456 48.0459 217.134 48.1631C216.841 48.3096 216.665 48.4121 216.606 48.4707C215.376 49.3789 213.984 50.375 212.432 51.459C210.908 52.5723 209.487 53.7881 208.169 55.1064C206.821 56.4248 205.693 57.8457 204.785 59.3691C203.877 60.9219 203.423 62.5918 203.423 64.3789C203.423 64.4668 203.423 64.6279 203.423 64.8623C203.423 65.0967 203.438 65.3311 203.467 65.5654C203.467 65.7998 203.481 66.0195 203.511 66.2246C203.511 66.459 203.511 66.6201 203.511 66.708ZM222.891 27.9482C222.422 27.9482 221.807 28.1094 221.045 28.4316C220.283 28.7246 219.463 29.1348 218.584 29.6621C217.734 30.1895 216.87 30.79 215.991 31.4639C215.112 32.1377 214.307 32.8408 213.574 33.5732C212.871 34.3057 212.3 35.0381 211.86 35.7705C211.421 36.5029 211.201 37.1768 211.201 37.792C211.816 37.792 212.563 37.6748 213.442 37.4404C214.321 37.1768 215.229 36.8398 216.167 36.4297C217.134 35.9902 218.086 35.4922 219.023 34.9355C219.961 34.3496 220.796 33.7344 221.528 33.0898C222.29 32.4453 222.905 31.7861 223.374 31.1123C223.843 30.4385 224.077 29.7793 224.077 29.1348C224.077 28.3438 223.682 27.9482 222.891 27.9482Z" fill="white" fill-opacity="0.6" />
<path d="M229.834 39.0225C229.834 38.7588 229.834 38.5537 229.834 38.4072C229.834 38.2607 229.849 38.1289 229.878 38.0117C229.937 37.8652 230.01 37.7188 230.098 37.5723C230.186 37.4258 230.303 37.2354 230.449 37.001C230.684 36.5908 231.123 35.873 231.768 34.8477C232.412 33.8223 233.101 32.7383 233.833 31.5957C234.565 30.4531 235.254 29.3691 235.898 28.3438C236.572 27.3184 237.041 26.6006 237.305 26.1904C237.334 26.1611 237.407 26.1465 237.524 26.1465C237.671 26.1465 237.773 26.1465 237.832 26.1465C237.891 26.1465 237.993 26.1465 238.14 26.1465C238.286 26.1465 238.374 26.1611 238.403 26.1904C238.433 26.2197 238.491 26.293 238.579 26.4102C238.696 26.5273 238.813 26.6592 238.931 26.8057C239.077 26.9229 239.194 27.04 239.282 27.1572C239.399 27.2744 239.487 27.333 239.546 27.333C239.81 27.333 240.088 27.2451 240.381 27.0693C240.674 26.8936 240.967 26.7031 241.26 26.498C241.582 26.2637 241.904 26.0586 242.227 25.8828C242.549 25.707 242.886 25.6191 243.237 25.6191C243.618 25.6191 243.97 25.707 244.292 25.8828C244.614 26.0586 244.893 26.2783 245.127 26.542C245.361 26.8057 245.537 27.0986 245.654 27.4209C245.801 27.7432 245.874 28.0654 245.874 28.3877C245.874 29.0615 245.771 29.7061 245.566 30.3213C245.391 30.9365 245.186 31.5518 244.951 32.167C244.717 32.7529 244.497 33.3535 244.292 33.9688C244.116 34.5547 244.028 35.1699 244.028 35.8145C244.028 36.459 244.102 36.9277 244.248 37.2207C244.395 37.4844 244.805 37.6162 245.479 37.6162C246.27 37.6162 247.017 37.499 247.72 37.2646C248.452 37.0303 249.199 36.9131 249.961 36.9131C249.961 37.6162 249.741 38.2021 249.302 38.6709C248.892 39.1396 248.364 39.5205 247.72 39.8135C247.104 40.0771 246.431 40.2676 245.698 40.3848C244.995 40.4727 244.351 40.5166 243.765 40.5166C242.651 40.5166 241.831 40.209 241.304 39.5938C240.806 38.9492 240.557 38.0996 240.557 37.0449C240.557 36.3418 240.674 35.6826 240.908 35.0674C241.172 34.4521 241.45 33.8516 241.743 33.2656C242.065 32.6797 242.358 32.0938 242.622 31.5078C242.886 30.9219 243.018 30.292 243.018 29.6182C243.018 29.4424 242.988 29.208 242.93 28.915C242.871 28.6221 242.681 28.4756 242.358 28.4756C241.392 28.4756 240.513 28.7832 239.722 29.3984C238.96 30.0137 238.257 30.79 237.612 31.7275C236.997 32.665 236.426 33.6758 235.898 34.7598C235.4 35.8438 234.917 36.8545 234.448 37.792C234.009 38.7295 233.584 39.5059 233.174 40.1211C232.764 40.7363 232.339 41.0439 231.899 41.0439C231.284 41.0439 230.786 40.8535 230.405 40.4727C230.024 40.0918 229.834 39.6084 229.834 39.0225Z" fill="white" fill-opacity="0.6" />
<path d="M249.082 38.8027C249.082 38.3633 249.214 37.748 249.478 36.957C249.741 36.1367 250.078 35.2578 250.488 34.3203C250.928 33.3828 251.411 32.4307 251.938 31.4639C252.495 30.4971 253.052 29.6182 253.608 28.8271C254.165 28.0361 254.692 27.3916 255.19 26.8936C255.688 26.3955 256.128 26.1465 256.509 26.1465C257.329 26.1465 257.739 26.542 257.739 27.333C257.739 27.6846 257.666 27.9775 257.52 28.2119C257.402 28.4463 257.256 28.666 257.08 28.8711C256.904 29.0762 256.714 29.2812 256.509 29.4863C256.304 29.6621 256.128 29.8818 255.981 30.1455C255.718 30.585 255.396 31.1855 255.015 31.9473C254.634 32.709 254.253 33.4561 253.872 34.1885C253.521 34.8916 253.213 35.5215 252.949 36.0781C252.686 36.6348 252.554 36.9424 252.554 37.001V37.5723C253.696 37.3672 254.795 36.8838 255.85 36.1221C256.904 35.3311 257.9 34.4082 258.838 33.3535C259.805 32.2988 260.713 31.2002 261.562 30.0576C262.441 28.8857 263.262 27.8164 264.023 26.8496C264.785 25.8535 265.503 25.0332 266.177 24.3887C266.851 23.7441 267.48 23.4219 268.066 23.4219C268.066 24.5059 267.847 25.4873 267.407 26.3662C266.968 27.2451 266.484 28.1094 265.957 28.959C265.459 29.8086 264.99 30.6875 264.551 31.5957C264.111 32.4746 263.892 33.4707 263.892 34.584C263.892 35.0527 264.17 35.4775 264.727 35.8584C265.312 36.21 265.972 36.5176 266.704 36.7812C267.466 37.0156 268.198 37.2061 268.901 37.3525C269.604 37.499 270.088 37.5869 270.352 37.6162V38.7588C269.678 38.7881 268.843 38.8027 267.847 38.8027C266.851 38.7734 265.854 38.6562 264.858 38.4512C263.862 38.2461 262.954 37.9092 262.134 37.4404C261.343 36.9424 260.815 36.2246 260.552 35.2871C259.79 35.7852 259.058 36.3711 258.354 37.0449C257.651 37.7188 256.919 38.3486 256.157 38.9346C255.425 39.5205 254.648 40.0186 253.828 40.4287C253.008 40.8389 252.114 41.0439 251.147 41.0439C250.562 41.0439 250.063 40.7949 249.653 40.2969C249.272 39.7988 249.082 39.3008 249.082 38.8027Z" fill="white" fill-opacity="0.6" />
<path d="M270.176 36.1221C270.176 35.5654 270.249 35.082 270.396 34.6719C270.571 34.2617 270.996 34.0566 271.67 34.0566C271.729 34.0566 271.86 34.0713 272.065 34.1006C272.3 34.1006 272.461 34.1152 272.549 34.1445C272.52 35.5215 272.739 36.5615 273.208 37.2646C273.677 37.9385 274.556 38.2754 275.845 38.2754C276.899 38.2754 277.939 38.1143 278.965 37.792C279.99 37.4697 280.913 37.001 281.733 36.3857C282.583 35.7412 283.257 34.9648 283.755 34.0566C284.282 33.1484 284.546 32.123 284.546 30.9805C284.546 30.2773 284.297 29.7793 283.799 29.4863C283.33 29.1934 282.803 28.959 282.217 28.7832C281.631 28.6074 281.089 28.417 280.591 28.2119C280.122 27.9775 279.888 27.582 279.888 27.0254C279.888 26.3516 280.298 25.707 281.118 25.0918C281.938 24.4766 282.905 23.9346 284.019 23.4658C285.132 22.9678 286.23 22.5869 287.314 22.3232C288.428 22.0303 289.277 21.8838 289.863 21.8838C289.863 22.7334 289.673 23.334 289.292 23.6855C288.94 24.0371 288.501 24.3154 287.974 24.5205C287.446 24.7256 286.904 24.9307 286.348 25.1357C285.82 25.3115 285.381 25.6631 285.029 26.1904C285.498 26.5713 285.879 26.9229 286.172 27.2451C286.494 27.5381 286.743 27.8604 286.919 28.2119C287.095 28.5635 287.212 28.959 287.271 29.3984C287.329 29.8086 287.358 30.3066 287.358 30.8926C287.358 32.416 287.021 33.8076 286.348 35.0674C285.703 36.2979 284.854 37.3672 283.799 38.2754C282.744 39.1543 281.543 39.8428 280.195 40.3408C278.848 40.8096 277.471 41.0439 276.064 41.0439C275.303 41.0439 274.556 40.9561 273.823 40.7803C273.12 40.5752 272.49 40.2676 271.934 39.8574C271.406 39.4473 270.981 38.9346 270.659 38.3193C270.337 37.7041 270.176 36.9717 270.176 36.1221Z" fill="white" fill-opacity="0.6" />
</svg>
