<svg width="151" height="40" viewBox="0 0 151 40" fill="none" xmlns="http://www.w3.org/2000/svg">
<mask id="mask0" mask-type="alpha" maskUnits="userSpaceOnUse" x="0" y="0" width="40" height="40">
<ellipse cx="5.2356" cy="5.26316" rx="5.2356" ry="5.26316" fill="white"/>
<ellipse cx="20" cy="5.26316" rx="5.2356" ry="5.26316" fill="white"/>
<ellipse cx="34.7644" cy="5.26316" rx="5.2356" ry="5.26316" fill="white"/>
<ellipse cx="5.2356" cy="20" rx="5.2356" ry="5.26316" fill="white"/>
<ellipse cx="20" cy="20" rx="5.2356" ry="5.26316" fill="white"/>
<ellipse cx="34.7644" cy="20" rx="5.2356" ry="5.26316" fill="white"/>
<ellipse cx="5.2356" cy="34.7369" rx="5.2356" ry="5.26316" fill="white"/>
<ellipse cx="20" cy="34.7369" rx="5.2356" ry="5.26316" fill="white"/>
<ellipse cx="34.7644" cy="34.7369" rx="5.2356" ry="5.26316" fill="white"/>
</mask>
<g mask="url(#mask0)">
<rect width="40" height="40" fill="url(#paint0_linear)"/>
</g>
<path d="M65.7567 12.0588C68.3235 12.0588 70.3824 12.9144 71.9332 14.6257C73.484 16.3102 74.2594 18.6364 74.2594 21.6043V34.6791H67.4412V22.5267C67.4412 21.0294 67.0535 19.8663 66.2781 19.0374C65.5027 18.2086 64.4599 17.7941 63.1497 17.7941C61.8396 17.7941 60.7968 18.2086 60.0214 19.0374C59.246 19.8663 58.8583 21.0294 58.8583 22.5267V34.6791H52V5H58.8583V15.3075C59.5535 14.3182 60.5027 13.5294 61.7059 12.9412C62.9091 12.3529 64.2594 12.0588 65.7567 12.0588Z" fill="white"/>
<path d="M77.6616 23.4492C77.6616 21.1497 78.0894 19.131 78.945 17.393C79.8273 15.6551 81.0172 14.3182 82.5145 13.3824C84.0118 12.4465 85.6829 11.9786 87.5279 11.9786C88.9985 11.9786 90.3354 12.2861 91.5386 12.9011C92.7685 13.516 93.7311 14.3449 94.4263 15.3877V5H101.285V34.6791H94.4263V31.4706C93.7845 32.5401 92.8621 33.3957 91.6589 34.0374C90.4824 34.6791 89.1054 35 87.5279 35C85.6829 35 84.0118 34.5321 82.5145 33.5963C81.0172 32.6337 79.8273 31.2834 78.945 29.5455C78.0894 27.7807 77.6616 25.7487 77.6616 23.4492ZM94.4263 23.4893C94.4263 21.7781 93.945 20.4278 92.9824 19.4385C92.0466 18.4492 90.8968 17.9545 89.5332 17.9545C88.1696 17.9545 87.0065 18.4492 86.0439 19.4385C85.1081 20.4011 84.6402 21.738 84.6402 23.4492C84.6402 25.1604 85.1081 26.5241 86.0439 27.5401C87.0065 28.5294 88.1696 29.0241 89.5332 29.0241C90.8968 29.0241 92.0466 28.5294 92.9824 27.5401C93.945 26.5508 94.4263 25.2005 94.4263 23.4893Z" fill="white"/>
<path d="M116.313 28.262L121.166 12.2995H128.465L120.524 34.6791H112.062L104.121 12.2995H111.46L116.313 28.262Z" fill="white"/>
<path d="M138.211 5V34.6791H131.352V5H138.211Z" fill="white"/>
<path d="M150.039 5V34.6791H143.181V5H150.039Z" fill="white"/>
<defs>
<linearGradient id="paint0_linear" x1="-1.57226e-09" y1="20" x2="39.9989" y2="19.7901" gradientUnits="userSpaceOnUse">
<stop stop-color="#6BD5C8"/>
<stop offset="1" stop-color="#9430C3"/>
</linearGradient>
</defs>
</svg>
