<svg width="97" height="38" viewBox="0 0 97 38" fill="none" xmlns="http://www.w3.org/2000/svg">
<ellipse cx="3.27225" cy="9.28947" rx="3.27225" ry="3.28947" fill="white"/>
<ellipse cx="12.5" cy="9.28947" rx="3.27225" ry="3.28947" fill="white"/>
<ellipse cx="21.7278" cy="9.28947" rx="3.27225" ry="3.28947" fill="white"/>
<ellipse cx="3.27225" cy="18.5" rx="3.27225" ry="3.28947" fill="white"/>
<ellipse cx="12.5" cy="18.5" rx="3.27225" ry="3.28947" fill="white"/>
<ellipse cx="21.7278" cy="18.5" rx="3.27225" ry="3.28947" fill="white"/>
<ellipse cx="3.27225" cy="27.7106" rx="3.27225" ry="3.28947" fill="white"/>
<ellipse cx="12.5" cy="27.7106" rx="3.27225" ry="3.28947" fill="white"/>
<ellipse cx="21.7278" cy="27.7106" rx="3.27225" ry="3.28947" fill="white"/>
<path d="M42.125 13.9C43.725 13.9 45.0083 14.4333 45.975 15.5C46.9417 16.55 47.425 18 47.425 19.85V28H43.175V20.425C43.175 19.4917 42.9333 18.7667 42.45 18.25C41.9667 17.7333 41.3167 17.475 40.5 17.475C39.6833 17.475 39.0333 17.7333 38.55 18.25C38.0667 18.7667 37.825 19.4917 37.825 20.425V28H33.55V9.5H37.825V15.925C38.2583 15.3083 38.85 14.8167 39.6 14.45C40.35 14.0833 41.1917 13.9 42.125 13.9ZM49.5457 21C49.5457 19.5667 49.8124 18.3083 50.3457 17.225C50.8957 16.1417 51.6374 15.3083 52.5707 14.725C53.504 14.1417 54.5457 13.85 55.6957 13.85C56.6124 13.85 57.4457 14.0417 58.1957 14.425C58.9624 14.8083 59.5624 15.325 59.9957 15.975V9.5H64.2707V28H59.9957V26C59.5957 26.6667 59.0207 27.2 58.2707 27.6C57.5374 28 56.679 28.2 55.6957 28.2C54.5457 28.2 53.504 27.9083 52.5707 27.325C51.6374 26.725 50.8957 25.8833 50.3457 24.8C49.8124 23.7 49.5457 22.4333 49.5457 21ZM59.9957 21.025C59.9957 19.9583 59.6957 19.1167 59.0957 18.5C58.5124 17.8833 57.7957 17.575 56.9457 17.575C56.0957 17.575 55.3707 17.8833 54.7707 18.5C54.1874 19.1 53.8957 19.9333 53.8957 21C53.8957 22.0667 54.1874 22.9167 54.7707 23.55C55.3707 24.1667 56.0957 24.475 56.9457 24.475C57.7957 24.475 58.5124 24.1667 59.0957 23.55C59.6957 22.9333 59.9957 22.0917 59.9957 21.025ZM73.6385 24L76.6635 14.05H81.2135L76.2635 28H70.9885L66.0385 14.05H70.6135L73.6385 24ZM87.2879 9.5V28H83.0129V9.5H87.2879ZM94.6609 9.5V28H90.3859V9.5H94.6609Z" fill="white"/>
</svg>
